<svg width="20" height="21" viewBox="0 0 20 21" fill="none" xmlns="http://www.w3.org/2000/svg">
<path d="M16.666 10.3193L17.3858 9.62179L18.0618 10.3193L17.3858 11.0169L16.666 10.3193ZM4.16607 11.3217C3.61249 11.3217 3.16372 10.8729 3.16372 10.3193C3.16372 9.76575 3.61249 9.31698 4.16607 9.31698V11.3217ZM11.666 5.15968L12.3859 4.46213L17.3858 9.62179L16.666 10.3193L15.9462 11.0169L10.9462 5.85722L11.666 5.15968ZM16.666 10.3193L17.3858 11.0169L12.3859 16.1765L11.666 15.479L10.9462 14.7815L15.9462 9.62179L16.666 10.3193ZM16.666 10.3193V11.3217H4.16607V10.3193V9.31698H16.666V10.3193Z" fill="white"/>
</svg>
