<svg width="11" height="12" viewBox="0 0 11 12" fill="none" xmlns="http://www.w3.org/2000/svg">
<path d="M5.29351 0C8.21703 0 10.587 2.36998 10.587 5.29351C10.587 8.98127 6.92837 11.2411 5.69426 11.8986C5.44085 12.0335 5.14616 12.0335 4.89275 11.8986C3.65865 11.2411 0 8.98127 0 5.29351C0 2.36998 2.36998 0 5.29351 0ZM5.29351 3.02486C4.04057 3.02486 3.02486 4.04057 3.02486 5.29351C3.02486 6.54645 4.04057 7.56216 5.29351 7.56216C6.54645 7.56216 7.56216 6.54645 7.56216 5.29351C7.56216 4.04057 6.54645 3.02486 5.29351 3.02486Z" fill="white"/>
</svg>
