<svg width="19" height="15" viewBox="0 0 19 15" fill="none" xmlns="http://www.w3.org/2000/svg">
<path d="M12.92 0C15.786 0 17.219 0.000394624 18.1094 0.890625C18.9997 1.78099 19 3.21408 19 6.08V8.69844C19 11.5644 18.9997 12.9975 18.1094 13.8878C17.219 14.778 15.786 14.7784 12.92 14.7784H6.08C3.21404 14.7784 1.78103 14.778 0.890625 13.8878C0.000264017 12.9975 1.32914e-09 11.5644 0 8.69844V6.08C1.27269e-09 3.21408 0.000263278 1.78099 0.890625 0.890625C1.78103 0.000394624 3.21404 0 6.08 0H12.92ZM16.6765 3.66047C16.366 3.19481 15.7369 3.06899 15.2713 3.37943L9.5 7.22693L3.72875 3.37943L3.63969 3.32599C3.18576 3.0858 2.61456 3.22395 2.32354 3.66047C2.03242 4.09714 2.1248 4.67776 2.52146 5.00432L2.60458 5.06568L8.37583 8.91318L8.50547 8.99333C9.16633 9.36566 9.98594 9.33866 10.6242 8.91318L16.3954 5.06568C16.8611 4.75524 16.9869 4.12612 16.6765 3.66047Z" fill="white"/>
</svg>
