<svg width="14" height="11" viewBox="0 0 14 11" fill="none" xmlns="http://www.w3.org/2000/svg">
<path d="M8.55556 0C10.7403 0 11.8329 0.000278153 12.6176 0.524595C12.9571 0.751472 13.2485 1.04293 13.4754 1.38238C13.9997 2.16707 14 3.25973 14 5.44444C14 7.62916 13.9997 8.72181 13.4754 9.50651C13.2485 9.84596 12.9571 10.1374 12.6176 10.3643C11.8329 10.8886 10.7403 10.8889 8.55556 10.8889H5.44444C3.25973 10.8889 2.16707 10.8886 1.38238 10.3643C1.04293 10.1374 0.751472 9.84596 0.524595 9.50651C0.000278146 8.72181 0 7.62916 0 5.44444C0 3.25973 0.000278146 2.16707 0.524595 1.38238C0.751472 1.04293 1.04293 0.751472 1.38238 0.524595C2.16707 0.000278153 3.25973 0 5.44444 0H8.55556ZM12.5295 2.53588C12.2317 2.08915 11.6471 1.94777 11.1826 2.19358L11.0914 2.24826L7 4.97555L2.90856 2.24826L2.81742 2.19358C2.35287 1.94777 1.76831 2.08915 1.47049 2.53588C1.17256 2.98277 1.26709 3.57696 1.67303 3.91117L1.7581 3.97396L5.84954 6.70124L5.9822 6.78328C6.65855 7.1644 7.49726 7.13672 8.15046 6.70124L12.2419 3.97396L12.327 3.91117C12.7329 3.57696 12.8274 2.98277 12.5295 2.53588Z" fill="white"/>
</svg>
